<svg width="32" height="32" viewBox="0 0 32 32" fill="none" xmlns="http://www.w3.org/2000/svg">
  <g clip-path="url(#clip0_6222_34422)">
    <path
      d="M7.16228 31.3528C6.81169 31.3528 6.46353 31.2435 6.16641 31.0286C5.61292 30.6275 5.35437 29.938 5.50501 29.2727L7.56366 20.2044L0.582033 14.0816C0.0688363 13.6336 -0.127214 12.9241 0.0834851 12.275C0.294184 11.627 0.867441 11.1682 1.54617 11.1055L10.7837 10.2668L14.4359 1.72C14.7052 1.09205 15.3185 0.686523 15.9999 0.686523C16.6813 0.686523 17.2946 1.09205 17.5639 1.71853L21.2161 10.2668L30.4522 11.1055C31.1324 11.1668 31.7056 11.627 31.9163 12.275C32.127 12.9229 31.9322 13.6336 31.419 14.0816L24.4374 20.2031L26.496 29.2712C26.6469 29.938 26.3881 30.6275 25.8349 31.0274C25.2829 31.4273 24.5468 31.4581 23.9654 31.1087L15.9999 26.3486L8.03437 31.1114C7.76508 31.2713 7.46502 31.3528 7.16228 31.3528ZM15.9999 24.298C16.3027 24.298 16.6025 24.3793 16.872 24.5392L24.3895 29.0354L22.4466 20.4763C22.3079 19.8672 22.5147 19.2312 22.9854 18.8191L29.5777 13.0377L20.856 12.2457C20.228 12.1883 19.688 11.7935 19.4426 11.2149L15.9999 3.14923L12.553 11.2161C12.3104 11.7908 11.7703 12.1856 11.1438 12.243L2.42095 13.035L9.01291 18.8164C9.48509 19.2297 9.69164 19.8645 9.55175 20.4751L7.61029 29.0339L15.1278 24.5392C15.3971 24.3793 15.6972 24.298 15.9999 24.298ZM10.7132 10.4321C10.7132 10.4321 10.7132 10.4336 10.7117 10.4348L10.7132 10.4321ZM21.284 10.4282L21.2854 10.4309C21.2854 10.4294 21.2854 10.4294 21.284 10.4282Z"
      fill="#7E7E7E" />
  </g>
  <defs>
    <clipPath id="clip0_6222_34422">
      <rect width="32" height="32" fill="white" />
    </clipPath>
  </defs>
</svg>